<svg width="30" height="30" viewBox="0 0 30 30" fill="none" xmlns="http://www.w3.org/2000/svg">
<path fill-rule="evenodd" clip-rule="evenodd" d="M4 0C1.79086 0 0 1.79086 0 4V26C0 28.2091 1.79086 30 4 30H26C28.2091 30 30 28.2091 30 26V4C30 1.79086 28.2091 0 26 0H4ZM20.8356 12.633L20.2137 16.7282H16.9452V26.6284C16.2301 26.7419 15.4986 26.8 14.7534 26.8C14.0082 26.8 13.2767 26.7419 12.5616 26.6284V16.7282H9V12.633H12.5616V9.51184C12.5616 5.9618 14.6548 4 17.8603 4C19.3945 4 21 4.2767 21 4.2767V7.76311H19.2301C17.4877 7.76311 16.9452 8.85607 16.9452 9.9767V12.633H20.8356Z" fill="#D9D9D9" fill-opacity="0.3"/>
</svg>
