<svg width="30" height="30" viewBox="0 0 30 30" fill="none" xmlns="http://www.w3.org/2000/svg">
<path fill-rule="evenodd" clip-rule="evenodd" d="M4 0C1.79086 0 0 1.79086 0 4V26C0 28.2091 1.79086 30 4 30H26C28.2091 30 30 28.2091 30 26V4C30 1.79086 28.2091 0 26 0H4ZM10.8837 24.9394C11.9425 24.9857 12.2705 25 14.9944 25C17.7107 25 18.0583 25 19.1188 24.939C19.9485 24.9222 20.7693 24.7651 21.5464 24.4744C22.8879 23.9538 23.9491 22.895 24.4714 21.5558C24.7636 20.7789 24.9213 19.9581 24.9378 19.1284C24.9845 18.0783 25 17.7234 25 15.0177C25 12.312 25 11.965 24.9378 10.9026C24.9251 10.0624 24.7669 9.23064 24.4703 8.44422C23.9493 7.10454 22.8882 6.04536 21.5464 5.52562C20.7682 5.23321 19.9457 5.0757 19.1144 5.05988L19.096 5.05908C18.0612 5.01425 17.7323 5 14.9944 5C12.286 5 11.9373 5 10.8767 5.05988C10.0476 5.07556 9.22726 5.23309 8.45142 5.52562C7.10922 6.04477 6.0479 7.10416 5.52748 8.44422C5.23611 9.21935 5.07878 10.0383 5.06219 10.866L5.06215 10.867C5.01443 11.9252 5 12.2452 5 14.98C5 17.6868 5 18.035 5.06219 19.0974C5.07842 19.9262 5.23576 20.7463 5.52748 21.5225C6.04846 22.8608 7.10806 23.9193 8.44808 24.44C9.22258 24.743 10.0432 24.9117 10.8745 24.939L10.8837 24.9394ZM10.9139 6.81564C11.9613 6.76855 12.2542 6.75538 14.9567 6.75538C17.6596 6.75538 17.9406 6.75538 19.0144 6.81637C19.6479 6.8236 20.2753 6.94028 20.869 7.16123C21.7408 7.49977 22.4299 8.1887 22.7679 9.05966C22.9865 9.65237 23.1033 10.2777 23.1133 10.9093C23.161 11.9683 23.1732 12.2533 23.1732 14.9623C23.1732 17.6713 23.1732 17.9541 23.1255 19.0142H23.1133C23.1062 19.6533 22.9893 20.2864 22.7679 20.886C22.4291 21.7557 21.7401 22.4433 20.869 22.7811C20.2752 23.0016 19.6479 23.1183 19.0144 23.126L19.0089 23.1262C17.9618 23.1748 17.676 23.1881 14.9567 23.1881C12.256 23.1881 11.9728 23.1881 10.8978 23.126C10.2647 23.1191 9.63755 23.0024 9.04442 22.7811C8.16834 22.4462 7.47493 21.757 7.13548 20.8838C6.91682 20.2903 6.80006 19.6642 6.79012 19.0319C6.74125 17.9641 6.73126 17.6414 6.73126 14.98C6.73126 12.2865 6.73126 12.0049 6.79012 10.9304C6.79679 10.2916 6.91362 9.65879 7.13548 9.05966C7.47443 8.18584 8.16796 7.49613 9.04442 7.16123C9.63796 6.94138 10.2648 6.82474 10.8978 6.81637L10.9139 6.81564ZM10.2492 16.94C11.0449 18.8553 12.9178 20.1034 14.9944 20.102C17.8274 20.0965 20.1219 17.8034 20.1249 14.9745C20.1245 12.9009 18.873 11.0317 16.9542 10.2388C15.0354 9.44585 12.8272 9.88533 11.3594 11.3523C9.89162 12.8192 9.45342 15.0246 10.2492 16.94ZM11.663 14.9723C11.663 13.135 13.1545 11.6456 14.9944 11.6456C16.8326 11.6499 18.3217 13.1368 18.3259 14.9723C18.3259 16.8096 16.8344 18.299 14.9944 18.299C13.1545 18.299 11.663 16.8096 11.663 14.9723ZM19.1322 9.65736C19.1309 10.3167 19.6645 10.8525 20.3248 10.855C20.6434 10.8558 20.9492 10.73 21.1746 10.5053C21.4001 10.2806 21.5267 9.97545 21.5264 9.65735C21.5251 8.99803 20.9895 8.46419 20.3293 8.46419C19.669 8.46419 19.1334 8.99804 19.1322 9.65736Z" fill="#D9D9D9" fill-opacity="0.3"/>
</svg>
