<svg width="180" height="52" viewBox="0 0 180 52" fill="none" xmlns="http://www.w3.org/2000/svg">
<g clip-path="url(#clip0_2_5)">
<path d="M22.2819 31.2564C20.9831 32.1022 19.3597 32.9079 17.7769 33.3509C16.1129 33.794 13.9618 33.8745 12.7036 32.7467C9.05092 29.4035 14.6111 23.2812 16.8839 20.5019C19.3192 17.5615 22.3631 14.8628 24.1894 11.6003C26.4216 7.69326 25.2852 4.02789 24.2301 0C28.9785 5.55848 32.1443 11.1572 30.9268 18.0449C30.0338 23.0797 27.3146 27.9133 22.2819 31.2564Z" fill="#FF8957"/>
<path d="M13.6776 38.1843C16.3969 39.1912 19.319 39.7954 22.2006 39.876C23.0935 39.151 23.9864 38.4663 24.8793 37.8621C21.3483 38.6676 17.5738 38.7885 13.6776 38.1843Z" fill="#CF3336"/>
<path d="M31.7789 38.1441C32.4688 37.8621 33.1587 37.4996 33.8488 37.1371C39.8555 33.7134 41.5195 28.155 40.3831 22.5562C39.7743 27.5508 37.1361 31.7398 32.2253 34.8009C32.2253 34.8815 32.2659 34.9218 32.2659 35.0024C32.4282 36.0898 32.3065 37.1371 31.7789 38.1441Z" fill="#CF3336"/>
<path d="M28.4912 34.0356C28.7348 33.5524 29.1813 32.5454 30.3988 32.7467C30.6018 32.7871 30.7641 32.8273 30.9265 32.9079C32.144 32.062 33.321 31.0954 34.3357 29.9675C40.6671 23.1604 39.0437 13.4935 32.144 7.12939C35.0662 14.1379 34.4574 21.7506 29.1406 27.9536C24.595 33.2703 19.1159 36.0496 11.8104 35.083C13.9615 36.1705 16.6402 36.8552 19.5218 36.8552C22.5657 36.6538 25.5285 35.8482 28.2478 34.4788C28.2883 34.3982 28.3289 34.3579 28.3696 34.2773C28.4101 34.1968 28.4507 34.1162 28.4912 34.0356Z" fill="#FF5D46"/>
<path d="M40.3423 40.0371C42.1284 38.9497 43.9958 38.0232 44.4828 35.7676C44.564 35.3648 44.8076 34.8815 44.4017 34.5995C43.9551 34.237 43.5086 34.5995 43.1433 34.8815C42.4938 35.4453 41.9661 36.0898 41.5602 36.8148C41.0731 37.8218 40.9107 38.9899 40.3423 40.0371Z" fill="#00CCFF"/>
<path d="M36.4061 41.89C38.6794 41.5677 40.6684 39.151 40.506 37.0565C40.4655 36.4523 40.1407 36.251 39.5724 36.5329C38.8417 36.8954 38.3952 37.4995 38.0704 38.1844C37.4616 39.3524 36.9745 40.5607 36.4061 41.89Z" fill="#00CCFF"/>
<path d="M33.1993 42.9776C35.3507 42.6553 36.6903 41.0845 36.6903 39.1511C36.6903 38.4664 36.3249 38.4664 35.8784 38.6677C35.2695 38.9094 34.8636 39.433 34.5795 39.997C34.0923 40.8831 33.6864 41.8498 33.1993 42.9776Z" fill="#00CCFF"/>
<path d="M25.488 52C36.081 52 45.1317 45.4345 48.9873 36.0495C48.8656 35.8482 48.7438 35.687 48.6221 35.6065C48.0944 35.1231 47.4857 35.3245 46.9986 35.7273C45.9028 36.6134 44.8881 37.6607 43.7923 38.5871C41.2761 40.7622 38.5974 42.7358 35.2693 43.6622C33.7675 44.065 32.2659 44.629 30.6831 44.7498C29.9931 44.79 29.3031 44.8303 28.6537 44.629C27.1114 44.1858 26.7056 43.1788 27.5986 41.8497C28.2479 40.8024 29.222 40.0371 30.0742 39.1107C31.1295 37.9023 31.7789 36.5731 31.4542 34.962C31.3324 34.237 31.0888 33.4717 30.2366 33.3508C29.4654 33.23 29.3031 33.9551 29.0596 34.4787C28.2073 36.0898 26.9085 37.2578 25.4069 38.3052C23.1747 39.876 21.0235 41.5275 19.4001 43.7026C18.9942 44.2262 18.4261 44.3873 17.8578 44.4678C13.9616 45.1928 10.5118 44.065 7.54901 41.5677C3.28747 37.9427 1.01465 33.23 0.162344 27.7924C0.0811719 27.3494 0.040586 26.866 0 26.4229C0.202931 40.5607 11.5264 52 25.488 52Z" fill="#00CCFF"/>
<path d="M64.1154 15.2091V14.1111C64.1154 13.2664 63.9775 12.6846 63.7017 12.3656C63.4442 12.0277 63.0579 11.8588 62.5429 11.8588C61.4761 11.8588 60.9429 12.5063 60.9429 13.8013V15.4061H58.1564V13.9421C58.1564 12.3468 58.5335 11.1362 59.2876 10.3104C60.0416 9.46575 61.1543 9.04346 62.6256 9.04346C64.0971 9.04346 65.219 9.47514 65.9914 10.3385C66.7639 11.1831 67.1501 12.4031 67.1501 13.9985V14.5052C67.1501 16.6073 66.442 17.9586 65.0259 18.5592C66.442 19.1974 67.1501 20.5769 67.1501 22.6978V24.2462C67.1501 25.8416 66.7639 27.071 65.9914 27.9343C65.219 28.7789 64.0971 29.2013 62.6256 29.2013C61.1543 29.2013 60.0324 28.7789 59.26 27.9343C58.4875 27.071 58.1013 25.8416 58.1013 24.2462V22.0784H60.9704V24.4433C60.9704 25.7384 61.4946 26.3859 62.5429 26.3859C63.0579 26.3859 63.4442 26.2263 63.7017 25.9073C63.9775 25.5694 64.1154 24.9876 64.1154 24.1618V22.6133C64.1154 21.7125 63.9591 21.0743 63.6464 20.6989C63.3338 20.3047 62.828 20.1077 62.1292 20.1077H61.3842V17.2924H62.2947C62.9016 17.2924 63.3521 17.1328 63.6464 16.8137C63.9591 16.4947 64.1154 15.9598 64.1154 15.2091Z" fill="white"/>
<path d="M85.951 31.6226H82.944V28.9761H76.4608V31.6226H73.5088V26.217H74.6951C75.1365 25.6541 75.3848 24.8 75.44 23.6551L76.1297 9.2688H84.6269V26.217H85.951V31.6226ZM78.9712 12.0841L78.4195 23.5988C78.3459 24.8563 78.0609 25.7292 77.5643 26.217H81.5369V12.0841H78.9712Z" fill="white"/>
<path d="M95.3938 13.8013V24.4433C95.3938 25.7384 95.918 26.3859 96.9663 26.3859C98.0147 26.3859 98.5388 25.7384 98.5388 24.4433V13.8013C98.5388 12.5063 98.0147 11.8588 96.9663 11.8588C95.918 11.8588 95.3938 12.5063 95.3938 13.8013ZM92.3591 24.2462V13.9985C92.3591 12.4219 92.7546 11.2019 93.5454 10.3385C94.3363 9.47514 95.4765 9.04346 96.9663 9.04346C98.4561 9.04346 99.5964 9.47514 100.387 10.3385C101.178 11.2019 101.574 12.4219 101.574 13.9985V24.2462C101.574 25.8228 101.178 27.0428 100.387 27.9061C99.5964 28.7695 98.4561 29.2013 96.9663 29.2013C95.4765 29.2013 94.3363 28.7695 93.5454 27.9061C92.7546 27.0428 92.3591 25.8228 92.3591 24.2462Z" fill="white"/>
<path d="M112.981 9.2688C115.997 9.2688 117.505 10.8923 117.505 14.1394V16.7013C117.505 19.9483 115.997 21.5719 112.981 21.5719H111.546V28.9761H108.512V9.2688H112.981ZM112.981 12.0841H111.546V18.7565H112.981C113.477 18.7565 113.845 18.6157 114.085 18.3342C114.342 18.0526 114.471 17.5741 114.471 16.8983V13.9422C114.471 13.2666 114.342 12.7879 114.085 12.5065C113.845 12.2249 113.477 12.0841 112.981 12.0841Z" fill="white"/>
<path d="M126.663 13.8013V24.4433C126.663 25.7384 127.187 26.3859 128.235 26.3859C129.284 26.3859 129.808 25.7384 129.808 24.4433V13.8013C129.808 12.5063 129.284 11.8588 128.235 11.8588C127.187 11.8588 126.663 12.5063 126.663 13.8013ZM123.628 24.2462V13.9985C123.628 12.4219 124.023 11.2019 124.815 10.3385C125.606 9.47514 126.746 9.04346 128.235 9.04346C129.725 9.04346 130.866 9.47514 131.656 10.3385C132.447 11.2019 132.842 12.4219 132.842 13.9985V24.2462C132.842 25.8228 132.447 27.0428 131.656 27.9061C130.866 28.7695 129.725 29.2013 128.235 29.2013C126.746 29.2013 125.606 28.7695 124.815 27.9061C124.023 27.0428 123.628 25.8228 123.628 24.2462Z" fill="white"/>
<path d="M144.36 9.2688C145.924 9.2688 147.065 9.64417 147.781 10.3949C148.499 11.1269 148.858 12.2625 148.858 13.8015V14.5053C148.858 16.5324 148.204 17.8556 146.898 18.4749C148.407 19.0755 149.161 20.4833 149.161 22.6979V24.3027C149.161 25.823 148.765 26.9866 147.975 27.7937C147.202 28.582 146.062 28.9761 144.554 28.9761H139.78V9.2688H144.36ZM144.167 20.1078H142.815V26.1608H144.554C145.087 26.1608 145.482 26.02 145.74 25.7385C145.997 25.4382 146.126 24.9314 146.126 24.2182V22.5009C146.126 21.6 145.97 20.9805 145.656 20.6428C145.363 20.2861 144.866 20.1078 144.167 20.1078ZM144.278 12.0841H142.815V17.2925H144.002C144.608 17.2925 145.06 17.133 145.353 16.8139C145.667 16.4949 145.823 15.9599 145.823 15.2092V14.1112C145.823 12.7598 145.308 12.0841 144.278 12.0841Z" fill="white"/>
<path d="M160.423 28.9761H155.954V9.2688H158.989V16.6731H160.423C163.44 16.6731 164.948 18.2967 164.948 21.5436V24.1056C164.948 27.3526 163.44 28.9761 160.423 28.9761ZM158.989 26.1608H160.423C160.92 26.1608 161.288 26.02 161.527 25.7385C161.785 25.4569 161.913 24.9783 161.913 24.3027V21.3466C161.913 20.6709 161.785 20.1923 161.527 19.9108C161.288 19.6292 160.92 19.4885 160.423 19.4885H158.989V26.1608Z" fill="white"/>
<path d="M174.758 12.0841V17.5741H178.925V20.3893H174.758V26.1608H180V28.9761H171.723V9.2688H180V12.0841H174.758Z" fill="white"/>
<path d="M62.2217 45.6455C61.0399 45.6455 60.0578 45.2162 59.2751 44.3576C58.4926 43.4907 58.1013 42.4257 58.1013 41.1625C58.1013 39.9159 58.4965 38.8592 59.2869 37.9923C60.0774 37.1172 61.0674 36.6797 62.2569 36.6797C62.9455 36.6797 63.5326 36.7994 64.0178 37.0388C64.503 37.27 64.9765 37.6167 65.4382 38.0791L64.8278 38.7725C64.0373 37.9799 63.1765 37.5837 62.2451 37.5837C61.3373 37.5837 60.5782 37.9263 59.9678 38.6115C59.3651 39.2968 59.0639 40.1471 59.0639 41.1625C59.0639 42.1698 59.3691 43.0202 59.9795 43.7136C60.5899 44.3989 61.3451 44.7415 62.2451 44.7415C62.7773 44.7415 63.2469 44.6383 63.6538 44.4319C64.0607 44.2255 64.4755 43.9118 64.8982 43.4907L65.5086 44.1719C65.0469 44.6589 64.5617 45.0263 64.053 45.2739C63.5443 45.5216 62.9338 45.6455 62.2217 45.6455Z" fill="white"/>
<path d="M68.3294 45.4968V39.9365H66.1577V39.0945H71.4169V39.9365H69.2452V45.4968H68.3294Z" fill="white"/>
<path d="M72.6141 47.4782V39.0945H73.518V40.3824C74.1285 39.4329 74.9032 38.9583 75.8423 38.9583C76.6171 38.9583 77.2941 39.2637 77.8732 39.8746C78.4523 40.4773 78.7418 41.2864 78.7418 42.3018C78.7418 43.3008 78.4523 44.1057 77.8732 44.7167C77.2941 45.3276 76.6171 45.633 75.8423 45.633C74.8875 45.633 74.1127 45.179 73.518 44.2708V47.4782H72.6141ZM75.6779 44.7785C76.2884 44.7785 76.7971 44.5557 77.2041 44.1099C77.611 43.6558 77.8145 43.049 77.8145 42.2894C77.8145 41.5546 77.6071 40.9603 77.1923 40.5062C76.7775 40.0438 76.2727 39.8126 75.6779 39.8126C75.091 39.8126 74.5785 40.048 74.1402 40.5186C73.7019 40.9892 73.4828 41.5836 73.4828 42.3018C73.4828 43.0201 73.7019 43.6145 74.1402 44.0851C74.5785 44.5475 75.091 44.7785 75.6779 44.7785Z" fill="white"/>
<path d="M82.0998 45.633C81.4816 45.633 80.9494 45.4556 80.5033 45.1006C80.0573 44.7455 79.8342 44.2502 79.8342 43.6145C79.8342 42.9458 80.069 42.4298 80.5385 42.0665C81.0081 41.7033 81.6381 41.5217 82.4285 41.5217C83.0546 41.5217 83.6729 41.6125 84.2833 41.7941V41.5959C84.2833 41.0346 84.1268 40.6053 83.8137 40.308C83.5008 40.0108 83.0585 39.8623 82.4873 39.8623C81.8925 39.8623 81.2781 40.015 80.6442 40.3205L80.3742 39.5402C81.1256 39.177 81.8612 38.9954 82.5812 38.9954C83.442 38.9954 84.0954 39.2307 84.5416 39.7013C84.9642 40.147 85.1754 40.7746 85.1754 41.5836V45.4968H84.2833V44.5433C83.7433 45.2698 83.0154 45.633 82.0998 45.633ZM82.276 44.8653C82.8394 44.8653 83.3168 44.7043 83.7081 44.3823C84.0994 44.0604 84.295 43.6476 84.295 43.1439V42.5496C83.7002 42.3679 83.1094 42.2771 82.5225 42.2771C81.9668 42.2771 81.5325 42.3968 81.2194 42.6363C80.9064 42.8673 80.7498 43.1852 80.7498 43.5898C80.7498 43.9778 80.8946 44.2874 81.1842 44.5186C81.4816 44.7497 81.8456 44.8653 82.276 44.8653Z" fill="white"/>
<path d="M86.421 45.4968L88.804 42.2399L86.515 39.0945H87.548L89.344 41.5712L91.1402 39.0945H92.1496L89.8488 42.2152L92.2436 45.4968H91.1988L89.3206 42.8839L87.4306 45.4968H86.421Z" fill="white"/>
<path d="M98.6323 44.6671C98.0217 45.3193 97.2665 45.6455 96.3665 45.6455C95.4665 45.6455 94.7153 45.3193 94.1127 44.6671C93.5179 44.0149 93.2205 43.2264 93.2205 42.3018C93.2205 41.3854 93.5219 40.6011 94.1244 39.949C94.7348 39.2885 95.49 38.9583 96.39 38.9583C97.29 38.9583 98.0413 39.2843 98.644 39.9365C99.2465 40.5888 99.5479 41.3772 99.5479 42.3018C99.5479 43.2182 99.2427 44.0067 98.6323 44.6671ZM96.39 44.791C97.0396 44.791 97.5717 44.5515 97.9865 44.0727C98.4092 43.5938 98.6205 43.0035 98.6205 42.3018C98.6205 41.6083 98.4013 41.018 97.9631 40.5309C97.5327 40.0438 97.0005 39.8003 96.3665 39.8003C95.7171 39.8003 95.1848 40.0438 94.77 40.5309C94.3553 41.0098 94.1479 41.6001 94.1479 42.3018C94.1479 42.9953 94.3631 43.5856 94.7936 44.0727C95.224 44.5515 95.7561 44.791 96.39 44.791Z" fill="white"/>
<path d="M101.068 45.4968V39.0945H104.003C104.606 39.0945 105.087 39.239 105.447 39.5279C105.807 39.8168 105.987 40.2049 105.987 40.6919C105.987 41.3772 105.65 41.8685 104.977 42.1656C105.869 42.4216 106.316 42.9499 106.316 43.7507C106.316 44.2874 106.116 44.7125 105.717 45.0262C105.318 45.34 104.782 45.4968 104.108 45.4968H101.068ZM101.972 44.6795H103.991C104.422 44.6795 104.762 44.5846 105.012 44.3946C105.263 44.2048 105.388 43.9407 105.388 43.6021C105.388 43.2884 105.255 43.0449 104.989 42.8715C104.731 42.6981 104.359 42.6114 103.874 42.6114H101.972V44.6795ZM101.972 41.8436H103.838C104.214 41.8436 104.512 41.757 104.731 41.5836C104.958 41.4019 105.071 41.146 105.071 40.8158C105.071 40.5434 104.966 40.3245 104.754 40.1595C104.543 39.9943 104.246 39.9118 103.862 39.9118H101.972V41.8436Z" fill="white"/>
<path d="M109.637 45.633C109.018 45.633 108.486 45.4556 108.04 45.1006C107.594 44.7455 107.371 44.2502 107.371 43.6145C107.371 42.9458 107.606 42.4298 108.076 42.0665C108.545 41.7033 109.175 41.5217 109.965 41.5217C110.592 41.5217 111.21 41.6125 111.82 41.7941V41.5959C111.82 41.0346 111.664 40.6053 111.351 40.308C111.038 40.0108 110.595 39.8623 110.024 39.8623C109.429 39.8623 108.815 40.015 108.181 40.3205L107.911 39.5402C108.662 39.177 109.398 38.9954 110.118 38.9954C110.979 38.9954 111.632 39.2307 112.078 39.7013C112.501 40.147 112.712 40.7746 112.712 41.5836V45.4968H111.82V44.5433C111.28 45.2698 110.552 45.633 109.637 45.633ZM109.813 44.8653C110.376 44.8653 110.854 44.7043 111.245 44.3823C111.636 44.0604 111.832 43.6476 111.832 43.1439V42.5496C111.237 42.3679 110.646 42.2771 110.059 42.2771C109.504 42.2771 109.069 42.3968 108.756 42.6363C108.443 42.8673 108.287 43.1852 108.287 43.5898C108.287 43.9778 108.432 44.2874 108.721 44.5186C109.018 44.7497 109.382 44.8653 109.813 44.8653Z" fill="white"/>
<path d="M113.97 45.4968L115.824 43.0201C115.347 42.9045 114.956 42.6775 114.651 42.3389C114.354 42.0005 114.204 41.5836 114.204 41.0882C114.204 40.4939 114.408 40.015 114.815 39.6517C115.222 39.2802 115.781 39.0945 116.493 39.0945H119.346V45.4968H118.442V43.1687H116.763C116.694 43.2678 116.451 43.6063 116.036 44.1842C115.621 44.762 115.304 45.1996 115.085 45.4968H113.97ZM116.564 42.3637H118.442V39.9365H116.541C116.094 39.9365 115.742 40.0438 115.484 40.2585C115.233 40.4649 115.109 40.7538 115.109 41.1254C115.109 41.5051 115.241 41.8065 115.508 42.0294C115.781 42.2524 116.133 42.3637 116.564 42.3637Z" fill="white"/>
<path d="M124.65 45.4968V39.0945H125.553V42.7848L128.875 39.0945H129.991L127.456 41.8685L130.061 45.4968H128.993L126.833 42.5619L125.553 43.9489V45.4968H124.65Z" fill="white"/>
<path d="M136.229 44.6671C135.619 45.3193 134.863 45.6455 133.963 45.6455C133.063 45.6455 132.313 45.3193 131.71 44.6671C131.115 44.0149 130.817 43.2264 130.817 42.3018C130.817 41.3854 131.119 40.6011 131.721 39.949C132.332 39.2885 133.087 38.9583 133.987 38.9583C134.887 38.9583 135.638 39.2843 136.241 39.9365C136.843 40.5888 137.144 41.3772 137.144 42.3018C137.144 43.2182 136.84 44.0067 136.229 44.6671ZM133.987 44.791C134.637 44.791 135.169 44.5515 135.583 44.0727C136.006 43.5938 136.217 43.0035 136.217 42.3018C136.217 41.6083 135.998 41.018 135.559 40.5309C135.13 40.0438 134.597 39.8003 133.963 39.8003C133.314 39.8003 132.782 40.0438 132.367 40.5309C131.953 41.0098 131.745 41.6001 131.745 42.3018C131.745 42.9953 131.959 43.5856 132.39 44.0727C132.821 44.5515 133.353 44.791 133.987 44.791Z" fill="white"/>
<path d="M138.665 45.4968V39.0945H139.522L141.788 42.4628L144.052 39.0945H144.922V45.4968H144.006V40.6176L141.764 43.8622L139.546 40.6176V45.4968H138.665Z" fill="white"/>
<path d="M146.824 45.4968V39.0945H152.083V45.4968H151.179V39.9365H147.728V45.4968H146.824Z" fill="white"/>
<path d="M155.795 45.633C155.176 45.633 154.644 45.4556 154.197 45.1006C153.752 44.7455 153.529 44.2502 153.529 43.6145C153.529 42.9458 153.763 42.4298 154.233 42.0665C154.702 41.7033 155.332 41.5217 156.123 41.5217C156.749 41.5217 157.367 41.6125 157.977 41.7941V41.5959C157.977 41.0346 157.821 40.6053 157.508 40.308C157.195 40.0108 156.753 39.8623 156.182 39.8623C155.587 39.8623 154.972 40.015 154.339 40.3205L154.069 39.5402C154.819 39.177 155.555 38.9954 156.275 38.9954C157.137 38.9954 157.789 39.2307 158.236 39.7013C158.659 40.147 158.869 40.7746 158.869 41.5836V45.4968H157.977V44.5433C157.437 45.2698 156.709 45.633 155.795 45.633ZM155.97 44.8653C156.534 44.8653 157.011 44.7043 157.402 44.3823C157.794 44.0604 157.99 43.6476 157.99 43.1439V42.5496C157.395 42.3679 156.804 42.2771 156.217 42.2771C155.661 42.2771 155.227 42.3968 154.914 42.6363C154.601 42.8673 154.445 43.1852 154.445 43.5898C154.445 43.9778 154.589 44.2874 154.879 44.5186C155.176 44.7497 155.539 44.8653 155.97 44.8653Z" fill="white"/>
<path d="M160.667 45.4968V39.0945H161.571V41.856H165.069V39.0945H165.974V45.4968H165.069V42.6981H161.571V45.4968H160.667Z" fill="white"/>
<path d="M167.875 45.4968V39.0945H168.78V44.1594L172.383 39.0945H173.264V45.4968H172.359V40.4319L168.744 45.4968H167.875Z" fill="white"/>
<path d="M174.624 45.4968L176.479 43.0201C176.001 42.9045 175.609 42.6775 175.304 42.3389C175.007 42.0005 174.859 41.5836 174.859 41.0882C174.859 40.4939 175.061 40.015 175.469 39.6517C175.876 39.2802 176.435 39.0945 177.147 39.0945H180V45.4968H179.097V43.1687H177.417C177.347 43.2678 177.104 43.6063 176.689 44.1842C176.275 44.762 175.958 45.1996 175.739 45.4968H174.624ZM177.218 42.3637H179.097V39.9365H177.194C176.749 39.9365 176.397 40.0438 176.138 40.2585C175.887 40.4649 175.762 40.7538 175.762 41.1254C175.762 41.5051 175.895 41.8065 176.162 42.0294C176.435 42.2524 176.787 42.3637 177.218 42.3637Z" fill="white"/>
</g>
<defs>
<clipPath id="clip0_2_5">
<rect width="180" height="52" fill="white"/>
</clipPath>
</defs>
</svg>
