<svg width="731" height="1180" viewBox="0 0 731 1180" fill="none" xmlns="http://www.w3.org/2000/svg">
<mask id="path-1-inside-1_24_59" fill="white">
<path fill-rule="evenodd" clip-rule="evenodd" d="M664.498 209.895C651.735 199.012 644.336 187.647 642.312 175.79C617.498 176.362 594.745 169.046 575.793 147.158C561.102 132.771 560.19 99.7833 565.027 59.0238C562.321 23.0851 532.049 10.1913 484.434 26.0006C407.309 43.4538 373.383 82.8751 317.86 111.312C352.676 144.938 411.784 145.315 483.703 128.154C479.042 138.553 464.569 144.367 445.262 147.929L476.38 172.463C499.058 172.565 518.05 168.984 534.588 162.945C533.914 172.773 524.159 178.626 507.865 181.617L549.965 205.052C566.467 205.335 579.142 203.182 589.504 199.557C587.874 205.047 583.001 208.769 575.226 210.909L664.493 209.895C677.257 199.012 684.655 187.647 686.68 175.79C711.493 176.362 734.246 169.046 753.199 147.158C767.889 132.771 768.802 99.7833 763.964 59.0238C766.671 23.0851 796.942 10.1913 844.557 26.0006C921.682 43.4538 955.608 82.8751 1011.13 111.312C976.315 144.938 917.208 145.315 845.288 128.154C849.949 138.553 864.422 144.367 883.729 147.929L852.612 172.463C829.933 172.565 810.941 168.984 794.404 162.945C795.077 172.773 804.832 178.626 821.126 181.617L779.026 205.052C762.524 205.335 749.849 203.182 739.487 199.557C741.118 205.047 745.991 208.769 753.766 210.909L664.498 209.895ZM664.498 0.000366211C690.879 0.000366211 712.264 21.3925 712.264 47.7783C712.264 74.1641 690.879 95.5562 664.498 95.5562C638.116 95.5562 616.727 74.1641 616.727 47.7783C616.727 21.3925 638.116 0.000366211 664.498 0.000366211ZM633.208 1023.6C621.676 1034.1 615.598 1048.18 616.79 1065.09C618.61 1090.97 631.289 1111.77 658.189 1114.6C647.194 1111.2 625.898 1087.12 628.113 1064.4C629.265 1052.57 636.659 1040.1 647.566 1031.22L633.208 1023.6ZM603.672 913.732C609.94 919.674 620.737 922.802 634.865 923.861C615.97 933.551 610.906 960.92 616.825 973.265C624.724 989.734 640.097 1001.29 659.222 1005.2C694.884 1012.5 717.239 1034 715.05 1065.09C713.23 1090.97 700.551 1111.77 673.655 1114.61C684.651 1111.2 705.946 1087.12 703.731 1064.41C701.76 1044.18 681.558 1022.09 656.732 1019.23C616.156 1014.56 603.769 999.487 594.936 978.17C587.71 960.73 589.659 927.476 603.672 913.736V913.732ZM578.81 787.621C586.173 794.599 598.865 798.277 615.465 799.526C593.265 810.914 590.665 838.172 597.735 852.621C610.242 878.179 636.473 889.078 665.419 888.662C708.197 888.046 738.849 917.445 740.4 954.044C741.596 982.326 717.5 1003.19 705.862 1013.02C700.48 1007 698.451 1002.68 686.547 998.437C699.474 994.431 717.992 971.603 716.428 957.655C713.77 933.914 694.393 914.135 665.03 913.577C613.901 912.606 575.359 892.286 566.25 857.872C560.575 836.422 562.343 803.762 578.805 787.621H578.81ZM555.387 640.769C565.519 650.375 582.983 655.435 605.829 657.15C575.274 672.826 560.137 696.03 571.885 714.795C590.683 744.819 629.588 749.493 669.429 748.917C728.297 748.066 766.383 791.617 770.135 841.89C772.053 867.562 747.891 887.204 731.876 900.736C724.469 892.459 712.406 885.45 696.027 879.614C713.81 874.102 737.166 859.144 735.017 839.949C731.358 807.28 707.524 788.542 667.112 787.776C596.756 786.442 543.329 767.017 530.791 719.66C522.981 690.146 532.732 662.99 555.387 640.769ZM525.24 471.426C537.902 483.035 559.72 489.145 588.264 491.223C550.089 510.16 531.172 538.208 545.849 560.88C569.334 597.16 617.981 604.174 667.723 602.114C757.239 598.401 794.519 640.937 799.21 701.684C801.607 732.709 785.884 754.615 765.873 770.97C756.623 760.965 741.547 752.497 721.08 745.443C743.302 738.784 761.789 724.357 759.1 701.166C754.528 661.687 715.312 649.998 664.826 649.072C576.918 647.459 510.169 623.989 494.504 566.765C484.74 531.096 496.923 498.281 525.236 471.43L525.24 471.426ZM680.858 270.486C700.666 243.866 727.473 230.977 766.458 241.947C836.038 251.425 886.117 294.741 881.377 360.008C878.315 402.123 851.814 435.687 812.634 456.117C791.94 441.274 768.997 429.16 741.609 422.443V422.438C785.53 416.195 817.923 395.884 826.256 359.392C835.321 319.713 816.842 289.663 767.198 283.695C732.838 302.415 704.485 296.261 680.867 270.482L680.858 270.486ZM743.386 248.886C735.412 244.885 729.395 246.777 725.705 255.634C734.973 259.923 740.971 257.885 743.386 248.886ZM649.892 270.486C630.084 243.866 603.277 230.977 564.292 241.947C494.712 251.425 444.633 294.741 449.378 360.008C454.482 430.232 524.735 476.712 610.352 478.094C723.105 479.915 790.425 498.077 789.889 546.055C789.619 570.247 765.16 586.327 732.302 594.675C754.563 602.149 772.979 612.114 785.774 625.717C816.142 610.165 839.702 584.107 838.497 541.571C836.326 464.784 760.473 427.046 616.005 424.508C558.745 423.502 514.453 402.991 504.498 359.4C495.434 319.722 513.908 289.672 563.557 283.704C597.917 302.424 626.274 296.27 649.892 270.491V270.486ZM587.364 248.886C595.339 244.885 601.355 246.777 605.041 255.634C595.773 259.923 589.774 257.885 587.364 248.886ZM664.502 1037.93L671.719 1039.86L664.502 1180L657.286 1039.86L664.502 1037.93ZM664.502 927.423H674.421L672.224 991.569H664.502H656.781L654.583 927.423H664.502ZM664.502 797.182H674.218L673.208 874.993H664.502H655.797L654.787 797.182H664.502ZM664.502 662.272H676.885L675.724 740.131H664.502H653.281L652.12 662.272H664.502ZM664.502 495.202H682.431V587.997H664.502H646.573V495.202H664.502ZM664.502 266.875L682.329 300.297V412.566H664.502H646.675V300.297L664.502 266.875ZM699.319 97.3374C686.436 103.749 674.545 106.766 664.502 103.514C654.459 106.762 642.573 103.744 629.686 97.3374C630.177 112.38 643.632 120.001 664.502 120.134C685.368 120.006 698.823 112.385 699.319 97.3374ZM664.502 195.14L681.749 167.247V133.724H664.502H647.256V167.247L664.502 195.14ZM674.413 219.696V257.752C685.293 244.619 699.213 233.258 715.923 223.519L674.413 219.696ZM931.096 290.266C880.092 270.017 833.513 247.007 794.324 219.377L733.967 222.425C806.866 231.074 855.89 255.772 883.751 294.697L931.096 290.266ZM1068.05 273.362C987.244 254.699 912.928 227.383 847.406 188.338L795.826 212.221C844.566 241.996 894.716 269.6 949.924 285.777C996.118 299.314 1034.97 291.272 1068.05 273.358V273.362ZM1214.72 237.725C1116.64 226.918 1015.95 201.228 911.138 152.236L869.455 181.293C938.14 222.66 1007.24 252.019 1077.03 260.885C1139.25 268.789 1181.71 257.836 1214.72 237.725ZM1026.27 116.297C1119.65 147.765 1221.02 168.776 1329 181.152C1319.05 210.847 1271.51 229.776 1202.69 224.525C1114.34 217.79 1023.86 187.501 947.111 153.778C986.176 153.964 1015.28 144.189 1026.27 116.297ZM654.592 219.691V257.748C643.712 244.615 629.792 233.254 613.081 223.515L654.592 219.691ZM397.908 290.261C448.913 270.012 495.492 247.003 534.681 219.372L595.037 222.421C522.139 231.07 473.115 255.767 445.254 294.692L397.908 290.261ZM260.959 273.358C341.761 254.695 416.077 227.379 481.599 188.334L533.179 212.216C484.438 241.992 434.289 269.596 379.08 285.773C332.887 299.309 294.039 291.267 260.959 273.353V273.358ZM114.285 237.72C212.36 226.913 313.058 201.223 417.866 152.231L459.55 181.289C390.864 222.655 321.767 252.014 251.97 260.88C189.753 268.785 147.294 257.832 114.285 237.72ZM302.735 116.293C209.356 147.761 107.981 168.772 0.00453281 181.147C9.95025 210.843 57.4947 229.771 126.317 224.521C214.668 217.786 305.15 187.497 381.893 153.773C342.828 153.959 313.726 144.185 302.735 116.293Z"/>
</mask>
<path fill-rule="evenodd" clip-rule="evenodd" d="M664.498 209.895C651.735 199.012 644.336 187.647 642.312 175.79C617.498 176.362 594.745 169.046 575.793 147.158C561.102 132.771 560.19 99.7833 565.027 59.0238C562.321 23.0851 532.049 10.1913 484.434 26.0006C407.309 43.4538 373.383 82.8751 317.86 111.312C352.676 144.938 411.784 145.315 483.703 128.154C479.042 138.553 464.569 144.367 445.262 147.929L476.38 172.463C499.058 172.565 518.05 168.984 534.588 162.945C533.914 172.773 524.159 178.626 507.865 181.617L549.965 205.052C566.467 205.335 579.142 203.182 589.504 199.557C587.874 205.047 583.001 208.769 575.226 210.909L664.493 209.895C677.257 199.012 684.655 187.647 686.68 175.79C711.493 176.362 734.246 169.046 753.199 147.158C767.889 132.771 768.802 99.7833 763.964 59.0238C766.671 23.0851 796.942 10.1913 844.557 26.0006C921.682 43.4538 955.608 82.8751 1011.13 111.312C976.315 144.938 917.208 145.315 845.288 128.154C849.949 138.553 864.422 144.367 883.729 147.929L852.612 172.463C829.933 172.565 810.941 168.984 794.404 162.945C795.077 172.773 804.832 178.626 821.126 181.617L779.026 205.052C762.524 205.335 749.849 203.182 739.487 199.557C741.118 205.047 745.991 208.769 753.766 210.909L664.498 209.895ZM664.498 0.000366211C690.879 0.000366211 712.264 21.3925 712.264 47.7783C712.264 74.1641 690.879 95.5562 664.498 95.5562C638.116 95.5562 616.727 74.1641 616.727 47.7783C616.727 21.3925 638.116 0.000366211 664.498 0.000366211ZM633.208 1023.6C621.676 1034.1 615.598 1048.18 616.79 1065.09C618.61 1090.97 631.289 1111.77 658.189 1114.6C647.194 1111.2 625.898 1087.12 628.113 1064.4C629.265 1052.57 636.659 1040.1 647.566 1031.22L633.208 1023.6ZM603.672 913.732C609.94 919.674 620.737 922.802 634.865 923.861C615.97 933.551 610.906 960.92 616.825 973.265C624.724 989.734 640.097 1001.29 659.222 1005.2C694.884 1012.5 717.239 1034 715.05 1065.09C713.23 1090.97 700.551 1111.77 673.655 1114.61C684.651 1111.2 705.946 1087.12 703.731 1064.41C701.76 1044.18 681.558 1022.09 656.732 1019.23C616.156 1014.56 603.769 999.487 594.936 978.17C587.71 960.73 589.659 927.476 603.672 913.736V913.732ZM578.81 787.621C586.173 794.599 598.865 798.277 615.465 799.526C593.265 810.914 590.665 838.172 597.735 852.621C610.242 878.179 636.473 889.078 665.419 888.662C708.197 888.046 738.849 917.445 740.4 954.044C741.596 982.326 717.5 1003.19 705.862 1013.02C700.48 1007 698.451 1002.68 686.547 998.437C699.474 994.431 717.992 971.603 716.428 957.655C713.77 933.914 694.393 914.135 665.03 913.577C613.901 912.606 575.359 892.286 566.25 857.872C560.575 836.422 562.343 803.762 578.805 787.621H578.81ZM555.387 640.769C565.519 650.375 582.983 655.435 605.829 657.15C575.274 672.826 560.137 696.03 571.885 714.795C590.683 744.819 629.588 749.493 669.429 748.917C728.297 748.066 766.383 791.617 770.135 841.89C772.053 867.562 747.891 887.204 731.876 900.736C724.469 892.459 712.406 885.45 696.027 879.614C713.81 874.102 737.166 859.144 735.017 839.949C731.358 807.28 707.524 788.542 667.112 787.776C596.756 786.442 543.329 767.017 530.791 719.66C522.981 690.146 532.732 662.99 555.387 640.769ZM525.24 471.426C537.902 483.035 559.72 489.145 588.264 491.223C550.089 510.16 531.172 538.208 545.849 560.88C569.334 597.16 617.981 604.174 667.723 602.114C757.239 598.401 794.519 640.937 799.21 701.684C801.607 732.709 785.884 754.615 765.873 770.97C756.623 760.965 741.547 752.497 721.08 745.443C743.302 738.784 761.789 724.357 759.1 701.166C754.528 661.687 715.312 649.998 664.826 649.072C576.918 647.459 510.169 623.989 494.504 566.765C484.74 531.096 496.923 498.281 525.236 471.43L525.24 471.426ZM680.858 270.486C700.666 243.866 727.473 230.977 766.458 241.947C836.038 251.425 886.117 294.741 881.377 360.008C878.315 402.123 851.814 435.687 812.634 456.117C791.94 441.274 768.997 429.16 741.609 422.443V422.438C785.53 416.195 817.923 395.884 826.256 359.392C835.321 319.713 816.842 289.663 767.198 283.695C732.838 302.415 704.485 296.261 680.867 270.482L680.858 270.486ZM743.386 248.886C735.412 244.885 729.395 246.777 725.705 255.634C734.973 259.923 740.971 257.885 743.386 248.886ZM649.892 270.486C630.084 243.866 603.277 230.977 564.292 241.947C494.712 251.425 444.633 294.741 449.378 360.008C454.482 430.232 524.735 476.712 610.352 478.094C723.105 479.915 790.425 498.077 789.889 546.055C789.619 570.247 765.16 586.327 732.302 594.675C754.563 602.149 772.979 612.114 785.774 625.717C816.142 610.165 839.702 584.107 838.497 541.571C836.326 464.784 760.473 427.046 616.005 424.508C558.745 423.502 514.453 402.991 504.498 359.4C495.434 319.722 513.908 289.672 563.557 283.704C597.917 302.424 626.274 296.27 649.892 270.491V270.486ZM587.364 248.886C595.339 244.885 601.355 246.777 605.041 255.634C595.773 259.923 589.774 257.885 587.364 248.886ZM664.502 1037.93L671.719 1039.86L664.502 1180L657.286 1039.86L664.502 1037.93ZM664.502 927.423H674.421L672.224 991.569H664.502H656.781L654.583 927.423H664.502ZM664.502 797.182H674.218L673.208 874.993H664.502H655.797L654.787 797.182H664.502ZM664.502 662.272H676.885L675.724 740.131H664.502H653.281L652.12 662.272H664.502ZM664.502 495.202H682.431V587.997H664.502H646.573V495.202H664.502ZM664.502 266.875L682.329 300.297V412.566H664.502H646.675V300.297L664.502 266.875ZM699.319 97.3374C686.436 103.749 674.545 106.766 664.502 103.514C654.459 106.762 642.573 103.744 629.686 97.3374C630.177 112.38 643.632 120.001 664.502 120.134C685.368 120.006 698.823 112.385 699.319 97.3374ZM664.502 195.14L681.749 167.247V133.724H664.502H647.256V167.247L664.502 195.14ZM674.413 219.696V257.752C685.293 244.619 699.213 233.258 715.923 223.519L674.413 219.696ZM931.096 290.266C880.092 270.017 833.513 247.007 794.324 219.377L733.967 222.425C806.866 231.074 855.89 255.772 883.751 294.697L931.096 290.266ZM1068.05 273.362C987.244 254.699 912.928 227.383 847.406 188.338L795.826 212.221C844.566 241.996 894.716 269.6 949.924 285.777C996.118 299.314 1034.97 291.272 1068.05 273.358V273.362ZM1214.72 237.725C1116.64 226.918 1015.95 201.228 911.138 152.236L869.455 181.293C938.14 222.66 1007.24 252.019 1077.03 260.885C1139.25 268.789 1181.71 257.836 1214.72 237.725ZM1026.27 116.297C1119.65 147.765 1221.02 168.776 1329 181.152C1319.05 210.847 1271.51 229.776 1202.69 224.525C1114.34 217.79 1023.86 187.501 947.111 153.778C986.176 153.964 1015.28 144.189 1026.27 116.297ZM654.592 219.691V257.748C643.712 244.615 629.792 233.254 613.081 223.515L654.592 219.691ZM397.908 290.261C448.913 270.012 495.492 247.003 534.681 219.372L595.037 222.421C522.139 231.07 473.115 255.767 445.254 294.692L397.908 290.261ZM260.959 273.358C341.761 254.695 416.077 227.379 481.599 188.334L533.179 212.216C484.438 241.992 434.289 269.596 379.08 285.773C332.887 299.309 294.039 291.267 260.959 273.353V273.358ZM114.285 237.72C212.36 226.913 313.058 201.223 417.866 152.231L459.55 181.289C390.864 222.655 321.767 252.014 251.97 260.88C189.753 268.785 147.294 257.832 114.285 237.72ZM302.735 116.293C209.356 147.761 107.981 168.772 0.00453281 181.147C9.95025 210.843 57.4947 229.771 126.317 224.521C214.668 217.786 305.15 187.497 381.893 153.773C342.828 153.959 313.726 144.185 302.735 116.293Z" fill="white" stroke="#F6F6F6" stroke-width="4" mask="url(#path-1-inside-1_24_59)"/>
</svg>
