<svg width="30" height="30" viewBox="0 0 30 30" fill="none" xmlns="http://www.w3.org/2000/svg">
<path fill-rule="evenodd" clip-rule="evenodd" d="M4 0C1.79086 0 0 1.79086 0 4V26C0 28.2091 1.79086 30 4 30H26C28.2091 30 30 28.2091 30 26V4C30 1.79086 28.2091 0 26 0H4ZM24.4663 10.4048C24.4663 10.1936 24.4663 9.99195 24.457 9.78075C25.3738 9.08955 26.1703 8.24475 26.8 7.26555C25.948 7.64955 25.0405 7.90875 24.1144 8.02395C25.0868 7.41915 25.8184 6.46874 26.1703 5.34554C25.2535 5.91194 24.244 6.31514 23.1976 6.52634C21.4195 4.57754 18.4561 4.48154 16.5761 6.31514C15.363 7.50555 14.8444 9.27195 15.224 10.952C11.4642 10.7504 7.96361 8.91675 5.58359 5.88314C4.34265 8.10075 4.98164 10.9328 7.02827 12.3536C6.28741 12.3344 5.55581 12.1232 4.90755 11.7488V11.8064C4.91682 14.12 6.48188 16.1072 8.65816 16.5488C7.97287 16.7504 7.25053 16.7792 6.54671 16.6352C7.15792 18.6128 8.91747 19.9664 10.9178 20.0048C9.26011 21.3584 7.21348 22.088 5.11129 22.088C4.74086 22.088 4.37043 22.0688 4 22.0208C6.13924 23.4416 8.63038 24.2 11.1678 24.2C19.7711 24.2 24.4755 16.808 24.4663 10.4048Z" fill="#D9D9D9" fill-opacity="0.3"/>
</svg>
